<svg xmlns="http://www.w3.org/2000/svg" viewBox="0 0 600 150">
  <defs>
    <marker id="arrowhead" markerWidth="10" markerHeight="7" refX="9" refY="3.5" orient="auto">
      <polygon points="0 0, 10 3.5, 0 7" fill="#333"/>
    </marker>
  </defs>
  
  <!-- 数轴主线 -->
  <line x1="30" y1="100" x2="570" y2="100" 
        stroke="#333" stroke-width="2" marker-end="url(#arrowhead)"/>
  
  <!-- 刻度 -->
  <line x1="50" y1="95" x2="50" y2="105" stroke="#333" stroke-width="1.5"/>
  <text x="50" y="120" text-anchor="middle" font-size="12" fill="#333">-3</text>
  <line x1="90" y1="95" x2="90" y2="105" stroke="#333" stroke-width="1.5"/>
  <text x="90" y="120" text-anchor="middle" font-size="12" fill="#333">-2</text>
  <line x1="130" y1="95" x2="130" y2="105" stroke="#333" stroke-width="1.5"/>
  <text x="130" y="120" text-anchor="middle" font-size="12" fill="#333">-1</text>
  <line x1="170" y1="95" x2="170" y2="105" stroke="#333" stroke-width="1.5"/>
  <text x="170" y="120" text-anchor="middle" font-size="12" fill="#333">0</text>
  <line x1="210" y1="95" x2="210" y2="105" stroke="#333" stroke-width="1.5"/>
  <text x="210" y="120" text-anchor="middle" font-size="12" fill="#333">1</text>
  <line x1="250" y1="95" x2="250" y2="105" stroke="#333" stroke-width="1.5"/>
  <text x="250" y="120" text-anchor="middle" font-size="12" fill="#333">2</text>
  <line x1="290" y1="95" x2="290" y2="105" stroke="#333" stroke-width="1.5"/>
  <text x="290" y="120" text-anchor="middle" font-size="12" fill="#333">3</text>
  <line x1="330" y1="95" x2="330" y2="105" stroke="#333" stroke-width="1.5"/>
  <text x="330" y="120" text-anchor="middle" font-size="12" fill="#333">4</text>
  <line x1="370" y1="95" x2="370" y2="105" stroke="#333" stroke-width="1.5"/>
  <text x="370" y="120" text-anchor="middle" font-size="12" fill="#333">5</text>
  <line x1="410" y1="95" x2="410" y2="105" stroke="#333" stroke-width="1.5"/>
  <text x="410" y="120" text-anchor="middle" font-size="12" fill="#333">6</text>
  <line x1="450" y1="95" x2="450" y2="105" stroke="#333" stroke-width="1.5"/>
  <text x="450" y="120" text-anchor="middle" font-size="12" fill="#333">7</text>

  <!-- 圆 -->
  <circle cx="130" cy="60" r="40" fill="none" stroke="#3498db" stroke-width="2"/>
  <circle cx="130" cy="100" r="5" fill="#e74c3c"/>
  <text x="130" y="135" text-anchor="middle" font-size="12" fill="#e74c3c">A</text>
</svg>