<?xml version="1.0" encoding="UTF-8"?>
<svg xmlns="http://www.w3.org/2000/svg" width="300" height="150" viewBox="0 0 300 150">
<style>
text { font-family: -apple-system, 'Helvetica Neue', sans-serif; }
.axis { stroke: #333; stroke-width: 2; fill: none; }
.tick { stroke: #333; stroke-width: 1.5; }
.grid { stroke: #ddd; stroke-width: 0.5; }
.point { fill: #e74c3c; }
.point-blue { fill: #667eea; }
.label { font-size: 14px; fill: #333; font-weight: 500; }
.small { font-size: 12px; fill: #666; }
.shape { stroke: #667eea; stroke-width: 2; fill: none; }
.shape-fill { stroke: #667eea; stroke-width: 2; fill: rgba(102,126,234,0.1); }
.segment { stroke: #667eea; stroke-width: 3; }
.arrow { fill: #333; }
</style>
<defs>
<marker id="arrow" markerWidth="10" markerHeight="10" refX="9" refY="3" orient="auto">
<path d="M0,0 L0,6 L9,3 z" class="arrow"/>
</marker>
<marker id="arrow-blue" markerWidth="10" markerHeight="10" refX="9" refY="3" orient="auto">
<path d="M0,0 L0,6 L9,3 z" fill="#667eea"/>
</marker>
</defs>
<rect x="20" y="20" width="260" height="110" class="shape" fill="white"/>
<line x1="20" y1="20.0" x2="280" y2="20.0" class="tick"/>
<line x1="20" y1="56.7" x2="280" y2="56.7" class="tick"/>
<line x1="20" y1="93.4" x2="280" y2="93.4" class="tick"/>
<line x1="20" y1="130.10000000000002" x2="280" y2="130.10000000000002" class="tick"/>
<line x1="20" y1="20" x2="20" y2="130" class="tick"/>
<line x1="85" y1="20" x2="85" y2="130" class="tick"/>
<line x1="150" y1="20" x2="150" y2="130" class="tick"/>
<line x1="215" y1="20" x2="215" y2="130" class="tick"/>
<line x1="280" y1="20" x2="280" y2="130" class="tick"/>
<text x="52" y="45" text-anchor="middle" class="small">项目</text>
<text x="117" y="45" text-anchor="middle" class="small">A</text>
<text x="182" y="45" text-anchor="middle" class="small">B</text>
<text x="247" y="45" text-anchor="middle" class="small">C</text>
</svg>