<?xml version="1.0" encoding="UTF-8"?>
<svg xmlns="http://www.w3.org/2000/svg" width="400" height="120" viewBox="0 0 400 120">
<style>
text { font-family: -apple-system, 'Helvetica Neue', sans-serif; }
.axis { stroke: #333; stroke-width: 2; fill: none; }
.tick { stroke: #333; stroke-width: 1.5; }
.grid { stroke: #ddd; stroke-width: 0.5; }
.point { fill: #e74c3c; }
.point-blue { fill: #667eea; }
.label { font-size: 14px; fill: #333; font-weight: 500; }
.small { font-size: 12px; fill: #666; }
.shape { stroke: #667eea; stroke-width: 2; fill: none; }
.shape-fill { stroke: #667eea; stroke-width: 2; fill: rgba(102,126,234,0.1); }
.segment { stroke: #667eea; stroke-width: 3; }
.arrow { fill: #333; }
</style>
<defs>
<marker id="arrow" markerWidth="10" markerHeight="10" refX="9" refY="3" orient="auto">
<path d="M0,0 L0,6 L9,3 z" class="arrow"/>
</marker>
<marker id="arrow-blue" markerWidth="10" markerHeight="10" refX="9" refY="3" orient="auto">
<path d="M0,0 L0,6 L9,3 z" fill="#667eea"/>
</marker>
</defs>
<line x1="40" y1="90" x2="360" y2="90" class="axis" marker-end="url(#arrow)"/>
<line x1="90" y1="86" x2="90" y2="94" class="tick"/>
<text x="90" y="108" text-anchor="middle" class="small">-2</text>
<line x1="130" y1="86" x2="130" y2="94" class="tick"/>
<text x="130" y="108" text-anchor="middle" class="small">-1</text>
<line x1="170" y1="86" x2="170" y2="94" class="tick"/>
<text x="170" y="108" text-anchor="middle" class="small">0</text>
<line x1="210" y1="86" x2="210" y2="94" class="tick"/>
<text x="210" y="108" text-anchor="middle" class="small">1</text>
<line x1="250" y1="86" x2="250" y2="94" class="tick"/>
<text x="250" y="108" text-anchor="middle" class="small">2</text>
<line x1="290" y1="86" x2="290" y2="94" class="tick"/>
<text x="290" y="108" text-anchor="middle" class="small">3</text>
<line x1="330" y1="86" x2="330" y2="94" class="tick"/>
<text x="330" y="108" text-anchor="middle" class="small">4</text>
<line x1="370" y1="86" x2="370" y2="94" class="tick"/>
<text x="370" y="108" text-anchor="middle" class="small">5</text>
<polygon points="170,90 130,90 150.0,55.36" class="shape"/>
<text x="178" y="85" class="label">A</text>
<text x="118" y="85" class="label">C</text>
<text x="150.0" y="47.36" text-anchor="middle" class="label">B</text>
</svg>