<svg xmlns="http://www.w3.org/2000/svg" viewBox="0 0 600 100">
  <defs>
    <marker id="arrowhead" markerWidth="10" markerHeight="7" refX="9" refY="3.5" orient="auto">
      <polygon points="0 0, 10 3.5, 0 7" fill="#333"/>
    </marker>
  </defs>
  
  <!-- 数轴主线 -->
  <line x1="30" y1="50" x2="570" y2="50" 
        stroke="#333" stroke-width="2" marker-end="url(#arrowhead)"/>
  <line x1="50.0" y1="45" x2="50.0" y2="55" stroke="#333" stroke-width="1.5"/>
  <text x="50.0" y="70" text-anchor="middle" font-size="12" fill="#333">-4</text>
  <line x1="100.0" y1="45" x2="100.0" y2="55" stroke="#333" stroke-width="1.5"/>
  <text x="100.0" y="70" text-anchor="middle" font-size="12" fill="#333">-3</text>
  <line x1="150.0" y1="45" x2="150.0" y2="55" stroke="#333" stroke-width="1.5"/>
  <text x="150.0" y="70" text-anchor="middle" font-size="12" fill="#333">-2</text>
  <line x1="200.0" y1="45" x2="200.0" y2="55" stroke="#333" stroke-width="1.5"/>
  <text x="200.0" y="70" text-anchor="middle" font-size="12" fill="#333">-1</text>
  <line x1="250.0" y1="45" x2="250.0" y2="55" stroke="#333" stroke-width="1.5"/>
  <text x="250.0" y="70" text-anchor="middle" font-size="12" fill="#333">0</text>
  <line x1="300.0" y1="45" x2="300.0" y2="55" stroke="#333" stroke-width="1.5"/>
  <text x="300.0" y="70" text-anchor="middle" font-size="12" fill="#333">1</text>
  <line x1="350.0" y1="45" x2="350.0" y2="55" stroke="#333" stroke-width="1.5"/>
  <text x="350.0" y="70" text-anchor="middle" font-size="12" fill="#333">2</text>
  <line x1="400.0" y1="45" x2="400.0" y2="55" stroke="#333" stroke-width="1.5"/>
  <text x="400.0" y="70" text-anchor="middle" font-size="12" fill="#333">3</text>
  <line x1="450.0" y1="45" x2="450.0" y2="55" stroke="#333" stroke-width="1.5"/>
  <text x="450.0" y="70" text-anchor="middle" font-size="12" fill="#333">4</text>
  <line x1="500.0" y1="45" x2="500.0" y2="55" stroke="#333" stroke-width="1.5"/>
  <text x="500.0" y="70" text-anchor="middle" font-size="12" fill="#333">5</text>
  <line x1="550.0" y1="45" x2="550.0" y2="55" stroke="#333" stroke-width="1.5"/>
  <text x="550.0" y="70" text-anchor="middle" font-size="12" fill="#333">6</text>

  <circle cx="150.0" cy="50" r="6" fill="#e74c3c"/>
  <text x="150.0" y="35" text-anchor="middle" font-size="14" font-weight="bold" fill="#e74c3c">A</text>

  <circle cx="450.0" cy="50" r="6" fill="#3498db"/>
  <text x="450.0" y="35" text-anchor="middle" font-size="14" font-weight="bold" fill="#3498db">B</text>
</svg>