<?xml version="1.0" encoding="UTF-8"?>
<svg xmlns="http://www.w3.org/2000/svg" width="400" height="80" viewBox="0 0 400 80">
<style>
text { font-family: -apple-system, 'Helvetica Neue', sans-serif; }
.axis { stroke: #333; stroke-width: 2; fill: none; }
.tick { stroke: #333; stroke-width: 1.5; }
.grid { stroke: #ddd; stroke-width: 0.5; }
.point { fill: #e74c3c; }
.point-blue { fill: #667eea; }
.label { font-size: 14px; fill: #333; font-weight: 500; }
.small { font-size: 12px; fill: #666; }
.shape { stroke: #667eea; stroke-width: 2; fill: none; }
.shape-fill { stroke: #667eea; stroke-width: 2; fill: rgba(102,126,234,0.1); }
.segment { stroke: #667eea; stroke-width: 3; }
.arrow { fill: #333; }
</style>
<defs>
<marker id="arrow" markerWidth="10" markerHeight="10" refX="9" refY="3" orient="auto">
<path d="M0,0 L0,6 L9,3 z" class="arrow"/>
</marker>
<marker id="arrow-blue" markerWidth="10" markerHeight="10" refX="9" refY="3" orient="auto">
<path d="M0,0 L0,6 L9,3 z" fill="#667eea"/>
</marker>
</defs>
<line x1="40" y1="40.0" x2="370" y2="40.0" class="axis" marker-end="url(#arrow)"/>
<line x1="40.0" y1="35.0" x2="40.0" y2="45.0" class="tick"/>
<text x="40.0" y="60.0" text-anchor="middle" class="small">-5</text>
<line x1="72.0" y1="35.0" x2="72.0" y2="45.0" class="tick"/>
<text x="72.0" y="60.0" text-anchor="middle" class="small">-4</text>
<line x1="104.0" y1="35.0" x2="104.0" y2="45.0" class="tick"/>
<text x="104.0" y="60.0" text-anchor="middle" class="small">-3</text>
<line x1="136.0" y1="35.0" x2="136.0" y2="45.0" class="tick"/>
<text x="136.0" y="60.0" text-anchor="middle" class="small">-2</text>
<line x1="168.0" y1="35.0" x2="168.0" y2="45.0" class="tick"/>
<text x="168.0" y="60.0" text-anchor="middle" class="small">-1</text>
<line x1="200.0" y1="35.0" x2="200.0" y2="45.0" class="tick"/>
<text x="200.0" y="60.0" text-anchor="middle" class="small">0</text>
<line x1="232.0" y1="35.0" x2="232.0" y2="45.0" class="tick"/>
<text x="232.0" y="60.0" text-anchor="middle" class="small">1</text>
<line x1="264.0" y1="35.0" x2="264.0" y2="45.0" class="tick"/>
<text x="264.0" y="60.0" text-anchor="middle" class="small">2</text>
<line x1="296.0" y1="35.0" x2="296.0" y2="45.0" class="tick"/>
<text x="296.0" y="60.0" text-anchor="middle" class="small">3</text>
<line x1="328.0" y1="35.0" x2="328.0" y2="45.0" class="tick"/>
<text x="328.0" y="60.0" text-anchor="middle" class="small">4</text>
<line x1="360.0" y1="35.0" x2="360.0" y2="45.0" class="tick"/>
<text x="360.0" y="60.0" text-anchor="middle" class="small">5</text>
<circle cx="136.0" cy="40.0" r="5" class="point"/>
<text x="136.0" y="28.0" text-anchor="middle" class="label">-2</text>
<circle cx="296.0" cy="40.0" r="5" class="point"/>
<text x="296.0" y="28.0" text-anchor="middle" class="label">3</text>
</svg>