<?xml version="1.0" encoding="UTF-8"?>
<svg xmlns="http://www.w3.org/2000/svg" width="400" height="80" viewBox="0 0 400 80">
<style>
text { font-family: -apple-system, 'Helvetica Neue', sans-serif; }
.formula { font-size: 16px; fill: #333; font-weight: 500; font-style: italic; }
.label { font-size: 14px; fill: #333; font-weight: 500; }
.small { font-size: 12px; fill: #666; }
.box { stroke: #667eea; stroke-width: 2; fill: rgba(102,126,234,0.05); rx: 8; }
.highlight { fill: #fef3c7; stroke: #fbbf24; }
.arrow { fill: #667eea; }
.line { stroke: #667eea; stroke-width: 2; }
</style>
<defs>
<marker id="arrow-right" markerWidth="10" markerHeight="10" refX="9" refY="3" orient="auto">
<path d="M0,0 L0,6 L9,3 z" class="arrow"/>
</marker>
</defs>
<rect x="10" y="10" width="380" height="60" class="box"/>
<text x="30" y="35" class="small">1</text>
<line x1="25" y1="40" x2="45" y2="40" stroke="#333" stroke-width="1"/>
<text x="30" y="55" class="small">1×2</text>
<text x="70" y="45" class="label">+</text>
<text x="100" y="35" class="small">1</text>
<line x1="95" y1="40" x2="115" y2="40" stroke="#333" stroke-width="1"/>
<text x="100" y="55" class="small">2×3</text>
<text x="140" y="45" class="label">+</text>
<text x="170" y="35" class="small">1</text>
<line x1="165" y1="40" x2="185" y2="40" stroke="#333" stroke-width="1"/>
<text x="170" y="55" class="small">3×4</text>
<text x="210" y="45" class="label">+</text>
<text x="240" y="35" class="small">1</text>
<line x1="235" y1="40" x2="255" y2="40" stroke="#333" stroke-width="1"/>
<text x="240" y="55" class="small">4×5</text>
<text x="280" y="45" class="label">+</text>
<text x="310" y="35" class="small">1</text>
<line x1="305" y1="40" x2="325" y2="40" stroke="#333" stroke-width="1"/>
<text x="310" y="55" class="small">5×6</text>
<text x="360" y="45" class="label">+ ...</text>
</svg>