<svg xmlns="http://www.w3.org/2000/svg" viewBox="0 0 600 100">
  <defs>
    <marker id="arrowhead" markerWidth="10" markerHeight="7" refX="9" refY="3.5" orient="auto">
      <polygon points="0 0, 10 3.5, 0 7" fill="#333"/>
    </marker>
  </defs>
  
  <!-- 数轴主线 -->
  <line x1="30" y1="50" x2="570" y2="50" 
        stroke="#333" stroke-width="2" marker-end="url(#arrowhead)"/>
  <line x1="50.0" y1="45" x2="50.0" y2="55" stroke="#333" stroke-width="1.5"/>
  <text x="50.0" y="70" text-anchor="middle" font-size="12" fill="#333">-10</text>
  <line x1="72.72727272727272" y1="45" x2="72.72727272727272" y2="55" stroke="#333" stroke-width="1.5"/>
  <text x="72.72727272727272" y="70" text-anchor="middle" font-size="12" fill="#333">-9</text>
  <line x1="95.45454545454545" y1="45" x2="95.45454545454545" y2="55" stroke="#333" stroke-width="1.5"/>
  <text x="95.45454545454545" y="70" text-anchor="middle" font-size="12" fill="#333">-8</text>
  <line x1="118.18181818181819" y1="45" x2="118.18181818181819" y2="55" stroke="#333" stroke-width="1.5"/>
  <text x="118.18181818181819" y="70" text-anchor="middle" font-size="12" fill="#333">-7</text>
  <line x1="140.9090909090909" y1="45" x2="140.9090909090909" y2="55" stroke="#333" stroke-width="1.5"/>
  <text x="140.9090909090909" y="70" text-anchor="middle" font-size="12" fill="#333">-6</text>
  <line x1="163.63636363636363" y1="45" x2="163.63636363636363" y2="55" stroke="#333" stroke-width="1.5"/>
  <text x="163.63636363636363" y="70" text-anchor="middle" font-size="12" fill="#333">-5</text>
  <line x1="186.36363636363637" y1="45" x2="186.36363636363637" y2="55" stroke="#333" stroke-width="1.5"/>
  <text x="186.36363636363637" y="70" text-anchor="middle" font-size="12" fill="#333">-4</text>
  <line x1="209.0909090909091" y1="45" x2="209.0909090909091" y2="55" stroke="#333" stroke-width="1.5"/>
  <text x="209.0909090909091" y="70" text-anchor="middle" font-size="12" fill="#333">-3</text>
  <line x1="231.8181818181818" y1="45" x2="231.8181818181818" y2="55" stroke="#333" stroke-width="1.5"/>
  <text x="231.8181818181818" y="70" text-anchor="middle" font-size="12" fill="#333">-2</text>
  <line x1="254.54545454545453" y1="45" x2="254.54545454545453" y2="55" stroke="#333" stroke-width="1.5"/>
  <text x="254.54545454545453" y="70" text-anchor="middle" font-size="12" fill="#333">-1</text>
  <line x1="277.27272727272725" y1="45" x2="277.27272727272725" y2="55" stroke="#333" stroke-width="1.5"/>
  <text x="277.27272727272725" y="70" text-anchor="middle" font-size="12" fill="#333">0</text>
  <line x1="300.0" y1="45" x2="300.0" y2="55" stroke="#333" stroke-width="1.5"/>
  <text x="300.0" y="70" text-anchor="middle" font-size="12" fill="#333">1</text>
  <line x1="322.72727272727275" y1="45" x2="322.72727272727275" y2="55" stroke="#333" stroke-width="1.5"/>
  <text x="322.72727272727275" y="70" text-anchor="middle" font-size="12" fill="#333">2</text>
  <line x1="345.45454545454544" y1="45" x2="345.45454545454544" y2="55" stroke="#333" stroke-width="1.5"/>
  <text x="345.45454545454544" y="70" text-anchor="middle" font-size="12" fill="#333">3</text>
  <line x1="368.1818181818182" y1="45" x2="368.1818181818182" y2="55" stroke="#333" stroke-width="1.5"/>
  <text x="368.1818181818182" y="70" text-anchor="middle" font-size="12" fill="#333">4</text>
  <line x1="390.9090909090909" y1="45" x2="390.9090909090909" y2="55" stroke="#333" stroke-width="1.5"/>
  <text x="390.9090909090909" y="70" text-anchor="middle" font-size="12" fill="#333">5</text>
  <line x1="413.6363636363636" y1="45" x2="413.6363636363636" y2="55" stroke="#333" stroke-width="1.5"/>
  <text x="413.6363636363636" y="70" text-anchor="middle" font-size="12" fill="#333">6</text>
  <line x1="436.3636363636364" y1="45" x2="436.3636363636364" y2="55" stroke="#333" stroke-width="1.5"/>
  <text x="436.3636363636364" y="70" text-anchor="middle" font-size="12" fill="#333">7</text>
  <line x1="459.09090909090907" y1="45" x2="459.09090909090907" y2="55" stroke="#333" stroke-width="1.5"/>
  <text x="459.09090909090907" y="70" text-anchor="middle" font-size="12" fill="#333">8</text>
  <line x1="481.8181818181818" y1="45" x2="481.8181818181818" y2="55" stroke="#333" stroke-width="1.5"/>
  <text x="481.8181818181818" y="70" text-anchor="middle" font-size="12" fill="#333">9</text>
  <line x1="504.5454545454545" y1="45" x2="504.5454545454545" y2="55" stroke="#333" stroke-width="1.5"/>
  <text x="504.5454545454545" y="70" text-anchor="middle" font-size="12" fill="#333">10</text>
  <line x1="527.2727272727273" y1="45" x2="527.2727272727273" y2="55" stroke="#333" stroke-width="1.5"/>
  <text x="527.2727272727273" y="70" text-anchor="middle" font-size="12" fill="#333">11</text>
  <line x1="550.0" y1="45" x2="550.0" y2="55" stroke="#333" stroke-width="1.5"/>
  <text x="550.0" y="70" text-anchor="middle" font-size="12" fill="#333">12</text>

  <circle cx="95.45454545454545" cy="50" r="6" fill="#e74c3c"/>
  <text x="95.45454545454545" y="35" text-anchor="middle" font-size="14" font-weight="bold" fill="#e74c3c">A</text>

  <circle cx="504.5454545454545" cy="50" r="6" fill="#3498db"/>
  <text x="504.5454545454545" y="35" text-anchor="middle" font-size="14" font-weight="bold" fill="#3498db">B</text>
</svg>