<svg xmlns="http://www.w3.org/2000/svg" viewBox="0 0 500 200">
  <defs>
    <marker id="arrowhead" markerWidth="10" markerHeight="7" refX="9" refY="3.5" orient="auto">
      <polygon points="0 0, 10 3.5, 0 7" fill="#333"/>
    </marker>
  </defs>
  
  <!-- 数轴 -->
  <line x1="30" y1="150" x2="470" y2="150" stroke="#333" stroke-width="2" marker-end="url(#arrowhead)"/>
  <line x1="-50" y1="145" x2="-50" y2="155" stroke="#333" stroke-width="1.5"/>
  <text x="-50" y="170" text-anchor="middle" font-size="11" fill="#333">-5</text>
  <line x1="-20" y1="145" x2="-20" y2="155" stroke="#333" stroke-width="1.5"/>
  <text x="-20" y="170" text-anchor="middle" font-size="11" fill="#333">-4</text>
  <line x1="10" y1="145" x2="10" y2="155" stroke="#333" stroke-width="1.5"/>
  <text x="10" y="170" text-anchor="middle" font-size="11" fill="#333">-3</text>
  <line x1="40" y1="145" x2="40" y2="155" stroke="#333" stroke-width="1.5"/>
  <text x="40" y="170" text-anchor="middle" font-size="11" fill="#333">-2</text>
  <line x1="70" y1="145" x2="70" y2="155" stroke="#333" stroke-width="1.5"/>
  <text x="70" y="170" text-anchor="middle" font-size="11" fill="#333">-1</text>
  <line x1="100" y1="145" x2="100" y2="155" stroke="#333" stroke-width="1.5"/>
  <text x="100" y="170" text-anchor="middle" font-size="11" fill="#333">0</text>
  <line x1="130" y1="145" x2="130" y2="155" stroke="#333" stroke-width="1.5"/>
  <text x="130" y="170" text-anchor="middle" font-size="11" fill="#333">1</text>
  <line x1="160" y1="145" x2="160" y2="155" stroke="#333" stroke-width="1.5"/>
  <text x="160" y="170" text-anchor="middle" font-size="11" fill="#333">2</text>
  <line x1="190" y1="145" x2="190" y2="155" stroke="#333" stroke-width="1.5"/>
  <text x="190" y="170" text-anchor="middle" font-size="11" fill="#333">3</text>
  <line x1="220" y1="145" x2="220" y2="155" stroke="#333" stroke-width="1.5"/>
  <text x="220" y="170" text-anchor="middle" font-size="11" fill="#333">4</text>
  <line x1="250" y1="145" x2="250" y2="155" stroke="#333" stroke-width="1.5"/>
  <text x="250" y="170" text-anchor="middle" font-size="11" fill="#333">5</text>
  <line x1="280" y1="145" x2="280" y2="155" stroke="#333" stroke-width="1.5"/>
  <text x="280" y="170" text-anchor="middle" font-size="11" fill="#333">6</text>
  <line x1="310" y1="145" x2="310" y2="155" stroke="#333" stroke-width="1.5"/>
  <text x="310" y="170" text-anchor="middle" font-size="11" fill="#333">7</text>

  <circle cx="100" cy="120" r="30" fill="none" stroke="#e74c3c" stroke-width="2"/>
  <text x="100" y="125" text-anchor="middle" font-size="12" fill="#e74c3c">r=1</text>
  <circle cx="100" cy="150" r="4" fill="#e74c3c"/>

  <circle cx="220" cy="90" r="60" fill="none" stroke="#3498db" stroke-width="2"/>
  <text x="220" y="95" text-anchor="middle" font-size="12" fill="#3498db">r=2</text>
  <circle cx="220" cy="150" r="4" fill="#3498db"/>
</svg>