<?xml version="1.0" encoding="UTF-8"?>
<svg xmlns="http://www.w3.org/2000/svg" width="500" height="120" viewBox="0 0 500 120">
<style>
text { font-family: -apple-system, 'Helvetica Neue', sans-serif; }
.axis { stroke: #333; stroke-width: 2; fill: none; }
.tick { stroke: #333; stroke-width: 1.5; }
.point { fill: #e74c3c; }
.point-blue { fill: #667eea; }
.point-green { fill: #10B981; }
.label { font-size: 14px; fill: #333; font-weight: 500; }
.small { font-size: 12px; fill: #666; }
.title { font-size: 16px; fill: #333; font-weight: 600; }
.shape { stroke: #667eea; stroke-width: 2; fill: none; }
.shape-fill { stroke: #667eea; stroke-width: 2; fill: rgba(102,126,234,0.1); }
.segment { stroke: #667eea; stroke-width: 3; }
.segment-red { stroke: #e74c3c; stroke-width: 2; stroke-dasharray: 5,3; }
.arrow { fill: #333; }
.table-line { stroke: #333; stroke-width: 1; }
.table-header { fill: #f0f4ff; }
</style>
<defs>
<marker id="arrow" markerWidth="10" markerHeight="10" refX="9" refY="3" orient="auto">
<path d="M0,0 L0,6 L9,3 z" class="arrow"/>
</marker>
</defs>
<rect x="30" y="30" width="440" height="70" fill="#fef3c7" stroke="#fbbf24" rx="5"/>
<line x1="40" y1="80" x2="460" y2="80" class="axis" marker-end="url(#arrow)"/>
<line x1="60" y1="76" x2="60" y2="84" class="tick"/>
<text x="60" y="98" text-anchor="middle" class="small">-6</text>
<line x1="90" y1="76" x2="90" y2="84" class="tick"/>
<text x="90" y="98" text-anchor="middle" class="small">-5</text>
<line x1="120" y1="76" x2="120" y2="84" class="tick"/>
<text x="120" y="98" text-anchor="middle" class="small">-4</text>
<line x1="150" y1="76" x2="150" y2="84" class="tick"/>
<text x="150" y="98" text-anchor="middle" class="small">-3</text>
<line x1="180" y1="76" x2="180" y2="84" class="tick"/>
<text x="180" y="98" text-anchor="middle" class="small">-2</text>
<line x1="210" y1="76" x2="210" y2="84" class="tick"/>
<text x="210" y="98" text-anchor="middle" class="small">-1</text>
<line x1="240" y1="76" x2="240" y2="84" class="tick"/>
<text x="240" y="98" text-anchor="middle" class="small">0</text>
<line x1="270" y1="76" x2="270" y2="84" class="tick"/>
<text x="270" y="98" text-anchor="middle" class="small">1</text>
<line x1="300" y1="76" x2="300" y2="84" class="tick"/>
<text x="300" y="98" text-anchor="middle" class="small">2</text>
<line x1="330" y1="76" x2="330" y2="84" class="tick"/>
<text x="330" y="98" text-anchor="middle" class="small">3</text>
<line x1="360" y1="76" x2="360" y2="84" class="tick"/>
<text x="360" y="98" text-anchor="middle" class="small">4</text>
<line x1="390" y1="76" x2="390" y2="84" class="tick"/>
<text x="390" y="98" text-anchor="middle" class="small">5</text>
<line x1="420" y1="76" x2="420" y2="84" class="tick"/>
<text x="420" y="98" text-anchor="middle" class="small">6</text>
<line x1="300" y1="30" x2="300" y2="105" class="segment-red"/>
<text x="300" y="25" text-anchor="middle" class="small" fill="#e74c3c">折痕</text>
</svg>