<svg width="500" height="250" xmlns="http://www.w3.org/2000/svg">
  <!-- 选项A -->
  <text x="60" y="20" text-anchor="middle" font-size="14" font-weight="bold">A</text>
  <polygon points="20,100 80,100 80,40" fill="none" stroke="#333" stroke-width="1.5"/>
  <polygon points="80,100 80,40 120,100" fill="none" stroke="#333" stroke-width="1.5"/>
  <text x="45" y="85" font-size="12" font-style="italic">α</text>
  <text x="95" y="85" font-size="12" font-style="italic">β</text>
  
  <!-- 选项B -->
  <text x="190" y="20" text-anchor="middle" font-size="14" font-weight="bold">B</text>
  <polygon points="150,100 210,100 210,40" fill="none" stroke="#333" stroke-width="1.5"/>
  <polygon points="210,100 210,40 250,100" fill="none" stroke="#333" stroke-width="1.5"/>
  <text x="175" y="85" font-size="12" font-style="italic">β</text>
  <text x="225" y="60" font-size="12" font-style="italic">α</text>
  
  <!-- 选项C -->
  <text x="60" y="130" text-anchor="middle" font-size="14" font-weight="bold">C</text>
  <polygon points="20,210 80,210 50,150" fill="none" stroke="#333" stroke-width="1.5"/>
  <polygon points="80,210 120,210 80,150" fill="none" stroke="#333" stroke-width="1.5"/>
  <text x="45" y="195" font-size="12" font-style="italic">α</text>
  <text x="95" y="195" font-size="12" font-style="italic">β</text>
  
  <!-- 选项D -->
  <text x="190" y="130" text-anchor="middle" font-size="14" font-weight="bold">D</text>
  <polygon points="150,210 210,210 180,150" fill="none" stroke="#333" stroke-width="1.5"/>
  <polygon points="210,210 250,210 210,150" fill="none" stroke="#333" stroke-width="1.5"/>
  <text x="175" y="165" font-size="12" font-style="italic">α</text>
  <text x="225" y="195" font-size="12" font-style="italic">β</text>
</svg>