<svg xmlns="http://www.w3.org/2000/svg" width="400" height="80" viewBox="0 0 400 80">
    <style>
        text { font-family: -apple-system, sans-serif; }
        .axis { stroke: #333; stroke-width: 2; }
        .tick { stroke: #333; stroke-width: 1; }
        .point { fill: #e74c3c; }
        .label { font-size: 14px; fill: #333; }
        .small-label { font-size: 12px; fill: #666; }
    </style>
    <defs>
        <marker id="arrow" markerWidth="10" markerHeight="10" refX="9" refY="3" orient="auto">
            <path d="M0,0 L0,6 L9,3 z" fill="#333"/>
        </marker>
    </defs>
    <line x1="40" y1="40.0" x2="370" y2="40.0" class="axis" marker-end="url(#arrow)"/>
    <line x1="40.0" y1="35.0" x2="40.0" y2="45.0" class="tick"/>
    <text x="40.0" y="60.0" text-anchor="middle" class="small-label">-2</text>
    <line x1="85.71428571428572" y1="35.0" x2="85.71428571428572" y2="45.0" class="tick"/>
    <text x="85.71428571428572" y="60.0" text-anchor="middle" class="small-label">-1</text>
    <line x1="131.42857142857144" y1="35.0" x2="131.42857142857144" y2="45.0" class="tick"/>
    <text x="131.42857142857144" y="60.0" text-anchor="middle" class="small-label">0</text>
    <line x1="177.14285714285714" y1="35.0" x2="177.14285714285714" y2="45.0" class="tick"/>
    <text x="177.14285714285714" y="60.0" text-anchor="middle" class="small-label">1</text>
    <line x1="222.85714285714286" y1="35.0" x2="222.85714285714286" y2="45.0" class="tick"/>
    <text x="222.85714285714286" y="60.0" text-anchor="middle" class="small-label">2</text>
    <line x1="268.57142857142856" y1="35.0" x2="268.57142857142856" y2="45.0" class="tick"/>
    <text x="268.57142857142856" y="60.0" text-anchor="middle" class="small-label">3</text>
    <line x1="314.2857142857143" y1="35.0" x2="314.2857142857143" y2="45.0" class="tick"/>
    <text x="314.2857142857143" y="60.0" text-anchor="middle" class="small-label">4</text>
    <line x1="360.0" y1="35.0" x2="360.0" y2="45.0" class="tick"/>
    <text x="360.0" y="60.0" text-anchor="middle" class="small-label">5</text>
    <circle cx="85.71428571428572" cy="40.0" r="5" class="point"/>
    <text x="85.71428571428572" y="28.0" text-anchor="middle" class="label">C</text>
    <circle cx="131.42857142857144" cy="40.0" r="5" class="point"/>
    <text x="131.42857142857144" y="28.0" text-anchor="middle" class="label">A</text>
    <circle cx="177.14285714285714" cy="40.0" r="5" class="point"/>
</svg>