<svg xmlns="http://www.w3.org/2000/svg" viewBox="0 0 400 80">
  <line x1="30" y1="40" x2="370" y2="40" stroke="#333" stroke-width="2"/>
  <polygon points="370,40 360,35 360,45" fill="#333"/>
  <line x1="40.0" y1="35" x2="40.0" y2="45" stroke="#333" stroke-width="1.5"/>
  <text x="40.0" y="60" font-family="Arial" font-size="12" text-anchor="middle" fill="#333">-5</text>
  <line x1="66.66666666666667" y1="35" x2="66.66666666666667" y2="45" stroke="#333" stroke-width="1.5"/>
  <text x="66.66666666666667" y="60" font-family="Arial" font-size="12" text-anchor="middle" fill="#333">-4</text>
  <line x1="93.33333333333334" y1="35" x2="93.33333333333334" y2="45" stroke="#333" stroke-width="1.5"/>
  <text x="93.33333333333334" y="60" font-family="Arial" font-size="12" text-anchor="middle" fill="#333">-3</text>
  <line x1="120.0" y1="35" x2="120.0" y2="45" stroke="#333" stroke-width="1.5"/>
  <text x="120.0" y="60" font-family="Arial" font-size="12" text-anchor="middle" fill="#333">-2</text>
  <line x1="146.66666666666669" y1="35" x2="146.66666666666669" y2="45" stroke="#333" stroke-width="1.5"/>
  <text x="146.66666666666669" y="60" font-family="Arial" font-size="12" text-anchor="middle" fill="#333">-1</text>
  <line x1="173.33333333333334" y1="35" x2="173.33333333333334" y2="45" stroke="#333" stroke-width="1.5"/>
  <text x="173.33333333333334" y="60" font-family="Arial" font-size="12" text-anchor="middle" fill="#333">0</text>
  <line x1="200.0" y1="35" x2="200.0" y2="45" stroke="#333" stroke-width="1.5"/>
  <text x="200.0" y="60" font-family="Arial" font-size="12" text-anchor="middle" fill="#333">1</text>
  <line x1="226.66666666666669" y1="35" x2="226.66666666666669" y2="45" stroke="#333" stroke-width="1.5"/>
  <text x="226.66666666666669" y="60" font-family="Arial" font-size="12" text-anchor="middle" fill="#333">2</text>
  <line x1="253.33333333333334" y1="35" x2="253.33333333333334" y2="45" stroke="#333" stroke-width="1.5"/>
  <text x="253.33333333333334" y="60" font-family="Arial" font-size="12" text-anchor="middle" fill="#333">3</text>
  <line x1="280.0" y1="35" x2="280.0" y2="45" stroke="#333" stroke-width="1.5"/>
  <text x="280.0" y="60" font-family="Arial" font-size="12" text-anchor="middle" fill="#333">4</text>
  <line x1="306.6666666666667" y1="35" x2="306.6666666666667" y2="45" stroke="#333" stroke-width="1.5"/>
  <text x="306.6666666666667" y="60" font-family="Arial" font-size="12" text-anchor="middle" fill="#333">5</text>
  <line x1="333.33333333333337" y1="35" x2="333.33333333333337" y2="45" stroke="#333" stroke-width="1.5"/>
  <text x="333.33333333333337" y="60" font-family="Arial" font-size="12" text-anchor="middle" fill="#333">6</text>
  <line x1="360.0" y1="35" x2="360.0" y2="45" stroke="#333" stroke-width="1.5"/>
  <text x="360.0" y="60" font-family="Arial" font-size="12" text-anchor="middle" fill="#333">7</text>
  <text x="173.33333333333334" y="72" font-family="Arial" font-size="11" text-anchor="middle" fill="#666">O</text>
  <circle cx="93.33333333333334" cy="40" r="4" fill="#2196F3"/>
  <text x="93.33333333333334" y="28" font-family="Arial" font-size="13" text-anchor="middle" fill="#2196F3">P</text>
  <circle cx="200.0" cy="40" r="4" fill="#333"/>
  <text x="200.0" y="68" font-family="Arial" font-size="13" text-anchor="middle" fill="#333">O</text>
  <circle cx="306.6666666666667" cy="40" r="4" fill="#4CAF50"/>
  <text x="306.6666666666667" y="28" font-family="Arial" font-size="13" text-anchor="middle" fill="#4CAF50">Q</text>
</svg>