<?xml version="1.0" encoding="UTF-8"?>
<svg xmlns="http://www.w3.org/2000/svg" width="200" height="200" viewBox="0 0 200 200">
<style>
text { font-family: -apple-system, 'Helvetica Neue', sans-serif; }
.axis { stroke: #333; stroke-width: 2; fill: none; }
.tick { stroke: #333; stroke-width: 1.5; }
.point { fill: #e74c3c; }
.point-blue { fill: #667eea; }
.point-green { fill: #10B981; }
.label { font-size: 14px; fill: #333; font-weight: 500; }
.small { font-size: 12px; fill: #666; }
.title { font-size: 16px; fill: #333; font-weight: 600; }
.shape { stroke: #667eea; stroke-width: 2; fill: none; }
.shape-fill { stroke: #667eea; stroke-width: 2; fill: rgba(102,126,234,0.1); }
.segment { stroke: #667eea; stroke-width: 3; }
.segment-red { stroke: #e74c3c; stroke-width: 2; stroke-dasharray: 5,3; }
.arrow { fill: #333; }
.table-line { stroke: #333; stroke-width: 1; }
.table-header { fill: #f0f4ff; }
</style>
<defs>
<marker id="arrow" markerWidth="10" markerHeight="10" refX="9" refY="3" orient="auto">
<path d="M0,0 L0,6 L9,3 z" class="arrow"/>
</marker>
</defs>
<line x1="50.0" y1="50.0" x2="50.0" y2="150.0" stroke="#ccc" stroke-width="1"/>
<line x1="50.0" y1="50.0" x2="150.0" y2="50.0" stroke="#ccc" stroke-width="1"/>
<line x1="75.0" y1="50.0" x2="75.0" y2="150.0" stroke="#ccc" stroke-width="1"/>
<line x1="50.0" y1="75.0" x2="150.0" y2="75.0" stroke="#ccc" stroke-width="1"/>
<line x1="100.0" y1="50.0" x2="100.0" y2="150.0" stroke="#ccc" stroke-width="1"/>
<line x1="50.0" y1="100.0" x2="150.0" y2="100.0" stroke="#ccc" stroke-width="1"/>
<line x1="125.0" y1="50.0" x2="125.0" y2="150.0" stroke="#ccc" stroke-width="1"/>
<line x1="50.0" y1="125.0" x2="150.0" y2="125.0" stroke="#ccc" stroke-width="1"/>
<line x1="150.0" y1="50.0" x2="150.0" y2="150.0" stroke="#ccc" stroke-width="1"/>
<line x1="50.0" y1="150.0" x2="150.0" y2="150.0" stroke="#ccc" stroke-width="1"/>
<circle cx="75.0" cy="75.0" r="10" fill="#333"/>
<circle cx="75.0" cy="100.0" r="10" fill="#333"/>
<circle cx="75.0" cy="125.0" r="10" fill="#333"/>
<circle cx="100.0" cy="75.0" r="10" fill="#333"/>
<circle cx="100.0" cy="100.0" r="10" fill="#333"/>
<circle cx="100.0" cy="125.0" r="10" fill="#333"/>
<circle cx="125.0" cy="75.0" r="10" fill="#333"/>
<circle cx="125.0" cy="100.0" r="10" fill="#333"/>
<circle cx="125.0" cy="125.0" r="10" fill="#333"/>
<circle cx="50.0" cy="50.0" r="10" fill="white" stroke="#333"/>
<circle cx="50.0" cy="75.0" r="10" fill="white" stroke="#333"/>
<circle cx="50.0" cy="100.0" r="10" fill="white" stroke="#333"/>
<circle cx="50.0" cy="125.0" r="10" fill="white" stroke="#333"/>
<circle cx="50.0" cy="150.0" r="10" fill="white" stroke="#333"/>
<circle cx="75.0" cy="50.0" r="10" fill="white" stroke="#333"/>
<circle cx="75.0" cy="150.0" r="10" fill="white" stroke="#333"/>
<circle cx="100.0" cy="50.0" r="10" fill="white" stroke="#333"/>
<circle cx="100.0" cy="150.0" r="10" fill="white" stroke="#333"/>
<circle cx="125.0" cy="50.0" r="10" fill="white" stroke="#333"/>
<circle cx="125.0" cy="150.0" r="10" fill="white" stroke="#333"/>
<circle cx="150.0" cy="50.0" r="10" fill="white" stroke="#333"/>
<circle cx="150.0" cy="75.0" r="10" fill="white" stroke="#333"/>
<circle cx="150.0" cy="100.0" r="10" fill="white" stroke="#333"/>
<circle cx="150.0" cy="125.0" r="10" fill="white" stroke="#333"/>
<circle cx="150.0" cy="150.0" r="10" fill="white" stroke="#333"/>
<text x="100.0" y="185" text-anchor="middle" class="small">图3</text>
</svg>