<svg xmlns="http://www.w3.org/2000/svg" viewBox="0 0 400 80">
  <line x1="30" y1="40" x2="370" y2="40" stroke="#333" stroke-width="2"/>
  <polygon points="370,40 360,35 360,45" fill="#333"/>
  <line x1="40.0" y1="35" x2="40.0" y2="45" stroke="#333" stroke-width="1.5"/>
  <text x="40.0" y="60" font-family="Arial" font-size="12" text-anchor="middle" fill="#333">-1</text>
  <line x1="69.0909090909091" y1="35" x2="69.0909090909091" y2="45" stroke="#333" stroke-width="1.5"/>
  <text x="69.0909090909091" y="60" font-family="Arial" font-size="12" text-anchor="middle" fill="#333">0</text>
  <line x1="98.18181818181819" y1="35" x2="98.18181818181819" y2="45" stroke="#333" stroke-width="1.5"/>
  <text x="98.18181818181819" y="60" font-family="Arial" font-size="12" text-anchor="middle" fill="#333">1</text>
  <line x1="127.27272727272727" y1="35" x2="127.27272727272727" y2="45" stroke="#333" stroke-width="1.5"/>
  <text x="127.27272727272727" y="60" font-family="Arial" font-size="12" text-anchor="middle" fill="#333">2</text>
  <line x1="156.36363636363637" y1="35" x2="156.36363636363637" y2="45" stroke="#333" stroke-width="1.5"/>
  <text x="156.36363636363637" y="60" font-family="Arial" font-size="12" text-anchor="middle" fill="#333">3</text>
  <line x1="185.45454545454544" y1="35" x2="185.45454545454544" y2="45" stroke="#333" stroke-width="1.5"/>
  <text x="185.45454545454544" y="60" font-family="Arial" font-size="12" text-anchor="middle" fill="#333">4</text>
  <line x1="214.54545454545453" y1="35" x2="214.54545454545453" y2="45" stroke="#333" stroke-width="1.5"/>
  <text x="214.54545454545453" y="60" font-family="Arial" font-size="12" text-anchor="middle" fill="#333">5</text>
  <line x1="243.63636363636363" y1="35" x2="243.63636363636363" y2="45" stroke="#333" stroke-width="1.5"/>
  <text x="243.63636363636363" y="60" font-family="Arial" font-size="12" text-anchor="middle" fill="#333">6</text>
  <line x1="272.72727272727275" y1="35" x2="272.72727272727275" y2="45" stroke="#333" stroke-width="1.5"/>
  <text x="272.72727272727275" y="60" font-family="Arial" font-size="12" text-anchor="middle" fill="#333">7</text>
  <line x1="301.8181818181818" y1="35" x2="301.8181818181818" y2="45" stroke="#333" stroke-width="1.5"/>
  <text x="301.8181818181818" y="60" font-family="Arial" font-size="12" text-anchor="middle" fill="#333">8</text>
  <line x1="330.9090909090909" y1="35" x2="330.9090909090909" y2="45" stroke="#333" stroke-width="1.5"/>
  <text x="330.9090909090909" y="60" font-family="Arial" font-size="12" text-anchor="middle" fill="#333">9</text>
  <line x1="360.0" y1="35" x2="360.0" y2="45" stroke="#333" stroke-width="1.5"/>
  <text x="360.0" y="60" font-family="Arial" font-size="12" text-anchor="middle" fill="#333">10</text>
  <text x="69.0909090909091" y="72" font-family="Arial" font-size="11" text-anchor="middle" fill="#666">O</text>
  <circle cx="69.0909090909091" cy="40" r="4" fill="#333"/>
  <text x="69.0909090909091" y="28" font-family="Arial" font-size="13" text-anchor="middle" fill="#333">A₀</text>
  <circle cx="127.27272727272727" cy="40" r="4" fill="#2196F3"/>
  <text x="127.27272727272727" y="68" font-family="Arial" font-size="13" text-anchor="middle" fill="#2196F3">A₁</text>
  <circle cx="185.45454545454544" cy="40" r="4" fill="#2196F3"/>
  <text x="185.45454545454544" y="28" font-family="Arial" font-size="13" text-anchor="middle" fill="#2196F3">A₂</text>
  <circle cx="301.8181818181818" cy="40" r="4" fill="#2196F3"/>
  <text x="301.8181818181818" y="68" font-family="Arial" font-size="13" text-anchor="middle" fill="#2196F3">A₃</text>
</svg>