<svg xmlns="http://www.w3.org/2000/svg" viewBox="0 0 480 80">
  <line x1="30" y1="40" x2="450" y2="40" stroke="#333" stroke-width="2"/>
  <polygon points="450,40 440,35 440,45" fill="#333"/>
  <line x1="40.0" y1="35" x2="40.0" y2="45" stroke="#333" stroke-width="1.5"/>
  <text x="40.0" y="60" font-family="Arial" font-size="12" text-anchor="middle" fill="#333">-8</text>
  <line x1="57.391304347826086" y1="35" x2="57.391304347826086" y2="45" stroke="#333" stroke-width="1.5"/>
  <text x="57.391304347826086" y="60" font-family="Arial" font-size="12" text-anchor="middle" fill="#333">-7</text>
  <line x1="74.78260869565217" y1="35" x2="74.78260869565217" y2="45" stroke="#333" stroke-width="1.5"/>
  <text x="74.78260869565217" y="60" font-family="Arial" font-size="12" text-anchor="middle" fill="#333">-6</text>
  <line x1="92.17391304347825" y1="35" x2="92.17391304347825" y2="45" stroke="#333" stroke-width="1.5"/>
  <text x="92.17391304347825" y="60" font-family="Arial" font-size="12" text-anchor="middle" fill="#333">-5</text>
  <line x1="109.56521739130434" y1="35" x2="109.56521739130434" y2="45" stroke="#333" stroke-width="1.5"/>
  <text x="109.56521739130434" y="60" font-family="Arial" font-size="12" text-anchor="middle" fill="#333">-4</text>
  <line x1="126.95652173913044" y1="35" x2="126.95652173913044" y2="45" stroke="#333" stroke-width="1.5"/>
  <text x="126.95652173913044" y="60" font-family="Arial" font-size="12" text-anchor="middle" fill="#333">-3</text>
  <line x1="144.3478260869565" y1="35" x2="144.3478260869565" y2="45" stroke="#333" stroke-width="1.5"/>
  <text x="144.3478260869565" y="60" font-family="Arial" font-size="12" text-anchor="middle" fill="#333">-2</text>
  <line x1="161.7391304347826" y1="35" x2="161.7391304347826" y2="45" stroke="#333" stroke-width="1.5"/>
  <text x="161.7391304347826" y="60" font-family="Arial" font-size="12" text-anchor="middle" fill="#333">-1</text>
  <line x1="179.1304347826087" y1="35" x2="179.1304347826087" y2="45" stroke="#333" stroke-width="1.5"/>
  <text x="179.1304347826087" y="60" font-family="Arial" font-size="12" text-anchor="middle" fill="#333">0</text>
  <line x1="196.52173913043478" y1="35" x2="196.52173913043478" y2="45" stroke="#333" stroke-width="1.5"/>
  <text x="196.52173913043478" y="60" font-family="Arial" font-size="12" text-anchor="middle" fill="#333">1</text>
  <line x1="213.91304347826087" y1="35" x2="213.91304347826087" y2="45" stroke="#333" stroke-width="1.5"/>
  <text x="213.91304347826087" y="60" font-family="Arial" font-size="12" text-anchor="middle" fill="#333">2</text>
  <line x1="231.30434782608694" y1="35" x2="231.30434782608694" y2="45" stroke="#333" stroke-width="1.5"/>
  <text x="231.30434782608694" y="60" font-family="Arial" font-size="12" text-anchor="middle" fill="#333">3</text>
  <line x1="248.69565217391303" y1="35" x2="248.69565217391303" y2="45" stroke="#333" stroke-width="1.5"/>
  <text x="248.69565217391303" y="60" font-family="Arial" font-size="12" text-anchor="middle" fill="#333">4</text>
  <line x1="266.0869565217391" y1="35" x2="266.0869565217391" y2="45" stroke="#333" stroke-width="1.5"/>
  <text x="266.0869565217391" y="60" font-family="Arial" font-size="12" text-anchor="middle" fill="#333">5</text>
  <line x1="283.4782608695652" y1="35" x2="283.4782608695652" y2="45" stroke="#333" stroke-width="1.5"/>
  <text x="283.4782608695652" y="60" font-family="Arial" font-size="12" text-anchor="middle" fill="#333">6</text>
  <line x1="300.8695652173913" y1="35" x2="300.8695652173913" y2="45" stroke="#333" stroke-width="1.5"/>
  <text x="300.8695652173913" y="60" font-family="Arial" font-size="12" text-anchor="middle" fill="#333">7</text>
  <line x1="318.2608695652174" y1="35" x2="318.2608695652174" y2="45" stroke="#333" stroke-width="1.5"/>
  <text x="318.2608695652174" y="60" font-family="Arial" font-size="12" text-anchor="middle" fill="#333">8</text>
  <line x1="335.65217391304344" y1="35" x2="335.65217391304344" y2="45" stroke="#333" stroke-width="1.5"/>
  <text x="335.65217391304344" y="60" font-family="Arial" font-size="12" text-anchor="middle" fill="#333">9</text>
  <line x1="353.04347826086956" y1="35" x2="353.04347826086956" y2="45" stroke="#333" stroke-width="1.5"/>
  <text x="353.04347826086956" y="60" font-family="Arial" font-size="12" text-anchor="middle" fill="#333">10</text>
  <line x1="370.4347826086956" y1="35" x2="370.4347826086956" y2="45" stroke="#333" stroke-width="1.5"/>
  <text x="370.4347826086956" y="60" font-family="Arial" font-size="12" text-anchor="middle" fill="#333">11</text>
  <line x1="387.82608695652175" y1="35" x2="387.82608695652175" y2="45" stroke="#333" stroke-width="1.5"/>
  <text x="387.82608695652175" y="60" font-family="Arial" font-size="12" text-anchor="middle" fill="#333">12</text>
  <line x1="405.2173913043478" y1="35" x2="405.2173913043478" y2="45" stroke="#333" stroke-width="1.5"/>
  <text x="405.2173913043478" y="60" font-family="Arial" font-size="12" text-anchor="middle" fill="#333">13</text>
  <line x1="422.6086956521739" y1="35" x2="422.6086956521739" y2="45" stroke="#333" stroke-width="1.5"/>
  <text x="422.6086956521739" y="60" font-family="Arial" font-size="12" text-anchor="middle" fill="#333">14</text>
  <line x1="440.0" y1="35" x2="440.0" y2="45" stroke="#333" stroke-width="1.5"/>
  <text x="440.0" y="60" font-family="Arial" font-size="12" text-anchor="middle" fill="#333">15</text>
  <text x="179.1304347826087" y="72" font-family="Arial" font-size="11" text-anchor="middle" fill="#666">O</text>
  <circle cx="92.17391304347825" cy="40" r="4" fill="#2196F3"/>
  <text x="92.17391304347825" y="28" font-family="Arial" font-size="13" text-anchor="middle" fill="#2196F3">A</text>
  <circle cx="144.3478260869565" cy="40" r="4" fill="#2196F3"/>
  <text x="144.3478260869565" y="68" font-family="Arial" font-size="13" text-anchor="middle" fill="#2196F3">B</text>
  <circle cx="353.04347826086956" cy="40" r="4" fill="#4CAF50"/>
  <text x="353.04347826086956" y="28" font-family="Arial" font-size="13" text-anchor="middle" fill="#4CAF50">C</text>
  <circle cx="422.6086956521739" cy="40" r="4" fill="#4CAF50"/>
  <text x="422.6086956521739" y="68" font-family="Arial" font-size="13" text-anchor="middle" fill="#4CAF50">D</text>
</svg>