<svg xmlns="http://www.w3.org/2000/svg" viewBox="0 0 400 80">
  <line x1="30" y1="40" x2="370" y2="40" stroke="#333" stroke-width="2"/>
  <polygon points="370,40 360,35 360,45" fill="#333"/>
  <line x1="40.0" y1="35" x2="40.0" y2="45" stroke="#333" stroke-width="1.5"/>
  <text x="40.0" y="60" font-family="Arial" font-size="12" text-anchor="middle" fill="#333">-5</text>
  <line x1="72.0" y1="35" x2="72.0" y2="45" stroke="#333" stroke-width="1.5"/>
  <text x="72.0" y="60" font-family="Arial" font-size="12" text-anchor="middle" fill="#333">-4</text>
  <line x1="104.0" y1="35" x2="104.0" y2="45" stroke="#333" stroke-width="1.5"/>
  <text x="104.0" y="60" font-family="Arial" font-size="12" text-anchor="middle" fill="#333">-3</text>
  <line x1="136.0" y1="35" x2="136.0" y2="45" stroke="#333" stroke-width="1.5"/>
  <text x="136.0" y="60" font-family="Arial" font-size="12" text-anchor="middle" fill="#333">-2</text>
  <line x1="168.0" y1="35" x2="168.0" y2="45" stroke="#333" stroke-width="1.5"/>
  <text x="168.0" y="60" font-family="Arial" font-size="12" text-anchor="middle" fill="#333">-1</text>
  <line x1="200.0" y1="35" x2="200.0" y2="45" stroke="#333" stroke-width="1.5"/>
  <text x="200.0" y="60" font-family="Arial" font-size="12" text-anchor="middle" fill="#333">0</text>
  <line x1="232.0" y1="35" x2="232.0" y2="45" stroke="#333" stroke-width="1.5"/>
  <text x="232.0" y="60" font-family="Arial" font-size="12" text-anchor="middle" fill="#333">1</text>
  <line x1="264.0" y1="35" x2="264.0" y2="45" stroke="#333" stroke-width="1.5"/>
  <text x="264.0" y="60" font-family="Arial" font-size="12" text-anchor="middle" fill="#333">2</text>
  <line x1="296.0" y1="35" x2="296.0" y2="45" stroke="#333" stroke-width="1.5"/>
  <text x="296.0" y="60" font-family="Arial" font-size="12" text-anchor="middle" fill="#333">3</text>
  <line x1="328.0" y1="35" x2="328.0" y2="45" stroke="#333" stroke-width="1.5"/>
  <text x="328.0" y="60" font-family="Arial" font-size="12" text-anchor="middle" fill="#333">4</text>
  <line x1="360.0" y1="35" x2="360.0" y2="45" stroke="#333" stroke-width="1.5"/>
  <text x="360.0" y="60" font-family="Arial" font-size="12" text-anchor="middle" fill="#333">5</text>
  <text x="200.0" y="72" font-family="Arial" font-size="11" text-anchor="middle" fill="#666">O</text>
  <circle cx="104.0" cy="40" r="4" fill="#2196F3"/>
  <text x="104.0" y="28" font-family="Arial" font-size="13" text-anchor="middle" fill="#2196F3">a</text>
  <circle cx="264.0" cy="40" r="4" fill="#4CAF50"/>
  <text x="264.0" y="68" font-family="Arial" font-size="13" text-anchor="middle" fill="#4CAF50">b</text>
</svg>