<svg xmlns="http://www.w3.org/2000/svg" viewBox="0 0 400 80">
  <line x1="30" y1="40" x2="370" y2="40" stroke="#333" stroke-width="2"/>
  <polygon points="370,40 360,35 360,45" fill="#333"/>
  <line x1="40.0" y1="35" x2="40.0" y2="45" stroke="#333" stroke-width="1.5"/>
  <text x="40.0" y="60" font-family="Arial" font-size="12" text-anchor="middle" fill="#333">-4</text>
  <line x1="80.0" y1="35" x2="80.0" y2="45" stroke="#333" stroke-width="1.5"/>
  <text x="80.0" y="60" font-family="Arial" font-size="12" text-anchor="middle" fill="#333">-3</text>
  <line x1="120.0" y1="35" x2="120.0" y2="45" stroke="#333" stroke-width="1.5"/>
  <text x="120.0" y="60" font-family="Arial" font-size="12" text-anchor="middle" fill="#333">-2</text>
  <line x1="160.0" y1="35" x2="160.0" y2="45" stroke="#333" stroke-width="1.5"/>
  <text x="160.0" y="60" font-family="Arial" font-size="12" text-anchor="middle" fill="#333">-1</text>
  <line x1="200.0" y1="35" x2="200.0" y2="45" stroke="#333" stroke-width="1.5"/>
  <text x="200.0" y="60" font-family="Arial" font-size="12" text-anchor="middle" fill="#333">0</text>
  <line x1="240.0" y1="35" x2="240.0" y2="45" stroke="#333" stroke-width="1.5"/>
  <text x="240.0" y="60" font-family="Arial" font-size="12" text-anchor="middle" fill="#333">1</text>
  <line x1="280.0" y1="35" x2="280.0" y2="45" stroke="#333" stroke-width="1.5"/>
  <text x="280.0" y="60" font-family="Arial" font-size="12" text-anchor="middle" fill="#333">2</text>
  <line x1="320.0" y1="35" x2="320.0" y2="45" stroke="#333" stroke-width="1.5"/>
  <text x="320.0" y="60" font-family="Arial" font-size="12" text-anchor="middle" fill="#333">3</text>
  <line x1="360.0" y1="35" x2="360.0" y2="45" stroke="#333" stroke-width="1.5"/>
  <text x="360.0" y="60" font-family="Arial" font-size="12" text-anchor="middle" fill="#333">4</text>
  <text x="200.0" y="72" font-family="Arial" font-size="11" text-anchor="middle" fill="#666">O</text>
  <circle cx="120.0" cy="40" r="4" fill="#2196F3"/>
  <text x="120.0" y="28" font-family="Arial" font-size="13" text-anchor="middle" fill="#2196F3">a</text>
  <circle cx="240.0" cy="40" r="4" fill="#4CAF50"/>
  <text x="240.0" y="68" font-family="Arial" font-size="13" text-anchor="middle" fill="#4CAF50">b</text>
  <circle cx="320.0" cy="40" r="4" fill="#E91E63"/>
  <text x="320.0" y="28" font-family="Arial" font-size="13" text-anchor="middle" fill="#E91E63">c</text>
</svg>