<?xml version="1.0" encoding="UTF-8"?>
<svg xmlns="http://www.w3.org/2000/svg" width="280" height="280" viewBox="0 0 280 280">
<style>
text { font-family: -apple-system, 'Helvetica Neue', sans-serif; }
.axis { stroke: #333; stroke-width: 2; fill: none; }
.tick { stroke: #333; stroke-width: 1.5; }
.grid { stroke: #ddd; stroke-width: 0.5; }
.point { fill: #e74c3c; }
.point-blue { fill: #667eea; }
.label { font-size: 14px; fill: #333; font-weight: 500; }
.small { font-size: 12px; fill: #666; }
.shape { stroke: #667eea; stroke-width: 2; fill: none; }
.shape-fill { stroke: #667eea; stroke-width: 2; fill: rgba(102,126,234,0.1); }
.segment { stroke: #667eea; stroke-width: 3; }
.arrow { fill: #333; }
</style>
<defs>
<marker id="arrow" markerWidth="10" markerHeight="10" refX="9" refY="3" orient="auto">
<path d="M0,0 L0,6 L9,3 z" class="arrow"/>
</marker>
<marker id="arrow-blue" markerWidth="10" markerHeight="10" refX="9" refY="3" orient="auto">
<path d="M0,0 L0,6 L9,3 z" fill="#667eea"/>
</marker>
</defs>
<line x1="35" y1="140.0" x2="255" y2="140.0" class="axis" marker-end="url(#arrow)"/>
<text x="250" y="130.0" class="label">x</text>
<line x1="140.0" y1="245" x2="140.0" y2="25" class="axis" marker-end="url(#arrow)"/>
<text x="152.0" y="35" class="label">y</text>
<text x="128.0" y="155.0" class="small">O</text>
<line x1="35.0" y1="137.0" x2="35.0" y2="143.0" class="tick"/>
<text x="35.0" y="155.0" text-anchor="middle" class="small" font-size="10">-3</text>
<line x1="70.0" y1="137.0" x2="70.0" y2="143.0" class="tick"/>
<text x="70.0" y="155.0" text-anchor="middle" class="small" font-size="10">-2</text>
<line x1="105.0" y1="137.0" x2="105.0" y2="143.0" class="tick"/>
<text x="105.0" y="155.0" text-anchor="middle" class="small" font-size="10">-1</text>
<line x1="175.0" y1="137.0" x2="175.0" y2="143.0" class="tick"/>
<text x="175.0" y="155.0" text-anchor="middle" class="small" font-size="10">1</text>
<line x1="210.0" y1="137.0" x2="210.0" y2="143.0" class="tick"/>
<text x="210.0" y="155.0" text-anchor="middle" class="small" font-size="10">2</text>
<line x1="245.0" y1="137.0" x2="245.0" y2="143.0" class="tick"/>
<text x="245.0" y="155.0" text-anchor="middle" class="small" font-size="10">3</text>
<line x1="137.0" y1="245.0" x2="143.0" y2="245.0" class="tick"/>
<text x="128.0" y="249.0" text-anchor="end" class="small" font-size="10">-3</text>
<line x1="137.0" y1="210.0" x2="143.0" y2="210.0" class="tick"/>
<text x="128.0" y="214.0" text-anchor="end" class="small" font-size="10">-2</text>
<line x1="137.0" y1="175.0" x2="143.0" y2="175.0" class="tick"/>
<text x="128.0" y="179.0" text-anchor="end" class="small" font-size="10">-1</text>
<line x1="137.0" y1="105.0" x2="143.0" y2="105.0" class="tick"/>
<text x="128.0" y="109.0" text-anchor="end" class="small" font-size="10">1</text>
<line x1="137.0" y1="70.0" x2="143.0" y2="70.0" class="tick"/>
<text x="128.0" y="74.0" text-anchor="end" class="small" font-size="10">2</text>
<line x1="137.0" y1="35.0" x2="143.0" y2="35.0" class="tick"/>
<text x="128.0" y="39.0" text-anchor="end" class="small" font-size="10">3</text>
<circle cx="175.0" cy="70.0" r="4" class="point"/>
<text x="183.0" y="65.0" class="label">P</text>
<circle cx="105.0" cy="175.0" r="4" class="point"/>
<text x="113.0" y="170.0" class="label">Q</text>
</svg>