<svg xmlns="http://www.w3.org/2000/svg" width="400" height="120" viewBox="0 0 400 120">
    <style>
        text { font-family: -apple-system, sans-serif; }
        .axis { stroke: #333; stroke-width: 2; }
        .tick { stroke: #333; stroke-width: 1; }
        .point { fill: #e74c3c; }
        .label { font-size: 14px; fill: #333; }
        .small-label { font-size: 12px; fill: #666; }
    </style>
    <defs>
        <marker id="arrow" markerWidth="10" markerHeight="10" refX="9" refY="3" orient="auto">
            <path d="M0,0 L0,6 L9,3 z" fill="#333"/>
        </marker>
    </defs>
    <line x1="40" y1="90" x2="360" y2="90" class="axis" marker-end="url(#arrow)"/>
    <line x1="100" y1="86" x2="100" y2="94" class="tick"/>
    <text x="100" y="108" text-anchor="middle" class="small-label">-2</text>
    <line x1="150" y1="86" x2="150" y2="94" class="tick"/>
    <text x="150" y="108" text-anchor="middle" class="small-label">-1</text>
    <line x1="200" y1="86" x2="200" y2="94" class="tick"/>
    <text x="200" y="108" text-anchor="middle" class="small-label">0</text>
    <line x1="250" y1="86" x2="250" y2="94" class="tick"/>
    <text x="250" y="108" text-anchor="middle" class="small-label">1</text>
    <line x1="300" y1="86" x2="300" y2="94" class="tick"/>
    <text x="300" y="108" text-anchor="middle" class="small-label">2</text>
    <line x1="350" y1="86" x2="350" y2="94" class="tick"/>
    <text x="350" y="108" text-anchor="middle" class="small-label">3</text>
    <line x1="400" y1="86" x2="400" y2="94" class="tick"/>
    <text x="400" y="108" text-anchor="middle" class="small-label">4</text>
    <line x1="450" y1="86" x2="450" y2="94" class="tick"/>
    <text x="450" y="108" text-anchor="middle" class="small-label">5</text>
    <polygon points="200,90 150,90 175.0,46.7" fill="none" stroke="#667eea" stroke-width="2"/>
    <text x="208" y="85" class="label">A</text>
    <text x="138" y="85" class="label">C</text>
    <text x="175.0" y="38.7" text-anchor="middle" class="label">B</text>
</svg>