<?xml version="1.0" encoding="UTF-8"?>
<svg xmlns="http://www.w3.org/2000/svg" width="450" height="100" viewBox="0 0 450 100">
<style>
text { font-family: -apple-system, 'Helvetica Neue', sans-serif; }
.axis { stroke: #333; stroke-width: 2; fill: none; }
.tick { stroke: #333; stroke-width: 1.5; }
.point { fill: #e74c3c; }
.point-blue { fill: #667eea; }
.point-green { fill: #10B981; }
.label { font-size: 14px; fill: #333; font-weight: 500; }
.small { font-size: 12px; fill: #666; }
.title { font-size: 16px; fill: #333; font-weight: 600; }
.shape { stroke: #667eea; stroke-width: 2; fill: none; }
.shape-fill { stroke: #667eea; stroke-width: 2; fill: rgba(102,126,234,0.1); }
.segment { stroke: #667eea; stroke-width: 3; }
.segment-red { stroke: #e74c3c; stroke-width: 2; stroke-dasharray: 5,3; }
.arrow { fill: #333; }
.table-line { stroke: #333; stroke-width: 1; }
.table-header { fill: #f0f4ff; }
</style>
<defs>
<marker id="arrow" markerWidth="10" markerHeight="10" refX="9" refY="3" orient="auto">
<path d="M0,0 L0,6 L9,3 z" class="arrow"/>
</marker>
</defs>
<line x1="40" y1="70" x2="410" y2="70" class="axis" marker-end="url(#arrow)"/>
<line x1="70" y1="66" x2="70" y2="74" class="tick"/>
<text x="70" y="88" text-anchor="middle" class="small">-2</text>
<line x1="105" y1="66" x2="105" y2="74" class="tick"/>
<line x1="140" y1="66" x2="140" y2="74" class="tick"/>
<text x="140" y="88" text-anchor="middle" class="small">0</text>
<line x1="175" y1="66" x2="175" y2="74" class="tick"/>
<line x1="210" y1="66" x2="210" y2="74" class="tick"/>
<line x1="245" y1="66" x2="245" y2="74" class="tick"/>
<line x1="280" y1="66" x2="280" y2="74" class="tick"/>
<line x1="315" y1="66" x2="315" y2="74" class="tick"/>
<text x="315" y="88" text-anchor="middle" class="small">5</text>
<line x1="350" y1="66" x2="350" y2="74" class="tick"/>
<line x1="385" y1="66" x2="385" y2="74" class="tick"/>
<circle cx="140" cy="70" r="5" class="point"/>
<text x="140" y="58" text-anchor="middle" class="label">A</text>
<circle cx="315" cy="70" r="5" class="point-blue"/>
<text x="315" y="58" text-anchor="middle" class="label">B</text>
<circle cx="210" cy="70" r="5" class="point-green"/>
<text x="210" y="58" text-anchor="middle" class="label">C</text>
</svg>