<?xml version="1.0" encoding="UTF-8"?>
<svg xmlns="http://www.w3.org/2000/svg" width="450" height="80" viewBox="0 0 450 80">
<style>
text { font-family: -apple-system, 'Helvetica Neue', sans-serif; }
.axis { stroke: #333; stroke-width: 2; fill: none; }
.tick { stroke: #333; stroke-width: 1.5; }
.point { fill: #e74c3c; }
.point-blue { fill: #667eea; }
.point-green { fill: #10B981; }
.label { font-size: 14px; fill: #333; font-weight: 500; }
.small { font-size: 12px; fill: #666; }
.title { font-size: 16px; fill: #333; font-weight: 600; }
.shape { stroke: #667eea; stroke-width: 2; fill: none; }
.shape-fill { stroke: #667eea; stroke-width: 2; fill: rgba(102,126,234,0.1); }
.segment { stroke: #667eea; stroke-width: 3; }
.segment-red { stroke: #e74c3c; stroke-width: 2; stroke-dasharray: 5,3; }
.arrow { fill: #333; }
.table-line { stroke: #333; stroke-width: 1; }
.table-header { fill: #f0f4ff; }
</style>
<defs>
<marker id="arrow" markerWidth="10" markerHeight="10" refX="9" refY="3" orient="auto">
<path d="M0,0 L0,6 L9,3 z" class="arrow"/>
</marker>
</defs>
<line x1="40" y1="40.0" x2="420" y2="40.0" class="axis" marker-end="url(#arrow)"/>
<line x1="40.0" y1="36.0" x2="40.0" y2="44.0" class="tick"/>
<text x="40.0" y="58.0" text-anchor="middle" class="small">-5</text>
<line x1="73.63636363636363" y1="36.0" x2="73.63636363636363" y2="44.0" class="tick"/>
<text x="73.63636363636363" y="58.0" text-anchor="middle" class="small">-4</text>
<line x1="107.27272727272727" y1="36.0" x2="107.27272727272727" y2="44.0" class="tick"/>
<text x="107.27272727272727" y="58.0" text-anchor="middle" class="small">-3</text>
<line x1="140.9090909090909" y1="36.0" x2="140.9090909090909" y2="44.0" class="tick"/>
<text x="140.9090909090909" y="58.0" text-anchor="middle" class="small">-2</text>
<line x1="174.54545454545453" y1="36.0" x2="174.54545454545453" y2="44.0" class="tick"/>
<text x="174.54545454545453" y="58.0" text-anchor="middle" class="small">-1</text>
<line x1="208.18181818181816" y1="36.0" x2="208.18181818181816" y2="44.0" class="tick"/>
<text x="208.18181818181816" y="58.0" text-anchor="middle" class="small">0</text>
<line x1="241.8181818181818" y1="36.0" x2="241.8181818181818" y2="44.0" class="tick"/>
<text x="241.8181818181818" y="58.0" text-anchor="middle" class="small">1</text>
<line x1="275.45454545454544" y1="36.0" x2="275.45454545454544" y2="44.0" class="tick"/>
<text x="275.45454545454544" y="58.0" text-anchor="middle" class="small">2</text>
<line x1="309.09090909090907" y1="36.0" x2="309.09090909090907" y2="44.0" class="tick"/>
<text x="309.09090909090907" y="58.0" text-anchor="middle" class="small">3</text>
<line x1="342.7272727272727" y1="36.0" x2="342.7272727272727" y2="44.0" class="tick"/>
<text x="342.7272727272727" y="58.0" text-anchor="middle" class="small">4</text>
<line x1="376.3636363636363" y1="36.0" x2="376.3636363636363" y2="44.0" class="tick"/>
<text x="376.3636363636363" y="58.0" text-anchor="middle" class="small">5</text>
<line x1="409.99999999999994" y1="36.0" x2="409.99999999999994" y2="44.0" class="tick"/>
<text x="409.99999999999994" y="58.0" text-anchor="middle" class="small">6</text>
<circle cx="140.9090909090909" cy="40.0" r="5" class="point"/>
<text x="140.9090909090909" y="28.0" text-anchor="middle" class="label">A</text>
<circle cx="208.18181818181816" cy="40.0" r="5" class="point-blue"/>
<text x="208.18181818181816" y="28.0" text-anchor="middle" class="label">O</text>
<circle cx="342.7272727272727" cy="40.0" r="5" class="point-green"/>
<text x="342.7272727272727" y="28.0" text-anchor="middle" class="label">B</text>
</svg>