<svg xmlns="http://www.w3.org/2000/svg" viewBox="0 0 400 80">
  <line x1="30" y1="40" x2="370" y2="40" stroke="#333" stroke-width="2"/>
  <polygon points="370,40 360,35 360,45" fill="#333"/>
  <line x1="40.0" y1="35" x2="40.0" y2="45" stroke="#333" stroke-width="1.5"/>
  <text x="40.0" y="60" font-family="Arial" font-size="12" text-anchor="middle" fill="#333">-6</text>
  <line x1="60.0" y1="35" x2="60.0" y2="45" stroke="#333" stroke-width="1.5"/>
  <text x="60.0" y="60" font-family="Arial" font-size="12" text-anchor="middle" fill="#333">-5</text>
  <line x1="80.0" y1="35" x2="80.0" y2="45" stroke="#333" stroke-width="1.5"/>
  <text x="80.0" y="60" font-family="Arial" font-size="12" text-anchor="middle" fill="#333">-4</text>
  <line x1="100.0" y1="35" x2="100.0" y2="45" stroke="#333" stroke-width="1.5"/>
  <text x="100.0" y="60" font-family="Arial" font-size="12" text-anchor="middle" fill="#333">-3</text>
  <line x1="120.0" y1="35" x2="120.0" y2="45" stroke="#333" stroke-width="1.5"/>
  <text x="120.0" y="60" font-family="Arial" font-size="12" text-anchor="middle" fill="#333">-2</text>
  <line x1="140.0" y1="35" x2="140.0" y2="45" stroke="#333" stroke-width="1.5"/>
  <text x="140.0" y="60" font-family="Arial" font-size="12" text-anchor="middle" fill="#333">-1</text>
  <line x1="160.0" y1="35" x2="160.0" y2="45" stroke="#333" stroke-width="1.5"/>
  <text x="160.0" y="60" font-family="Arial" font-size="12" text-anchor="middle" fill="#333">0</text>
  <line x1="180.0" y1="35" x2="180.0" y2="45" stroke="#333" stroke-width="1.5"/>
  <text x="180.0" y="60" font-family="Arial" font-size="12" text-anchor="middle" fill="#333">1</text>
  <line x1="200.0" y1="35" x2="200.0" y2="45" stroke="#333" stroke-width="1.5"/>
  <text x="200.0" y="60" font-family="Arial" font-size="12" text-anchor="middle" fill="#333">2</text>
  <line x1="220.0" y1="35" x2="220.0" y2="45" stroke="#333" stroke-width="1.5"/>
  <text x="220.0" y="60" font-family="Arial" font-size="12" text-anchor="middle" fill="#333">3</text>
  <line x1="240.0" y1="35" x2="240.0" y2="45" stroke="#333" stroke-width="1.5"/>
  <text x="240.0" y="60" font-family="Arial" font-size="12" text-anchor="middle" fill="#333">4</text>
  <line x1="260.0" y1="35" x2="260.0" y2="45" stroke="#333" stroke-width="1.5"/>
  <text x="260.0" y="60" font-family="Arial" font-size="12" text-anchor="middle" fill="#333">5</text>
  <line x1="280.0" y1="35" x2="280.0" y2="45" stroke="#333" stroke-width="1.5"/>
  <text x="280.0" y="60" font-family="Arial" font-size="12" text-anchor="middle" fill="#333">6</text>
  <line x1="300.0" y1="35" x2="300.0" y2="45" stroke="#333" stroke-width="1.5"/>
  <text x="300.0" y="60" font-family="Arial" font-size="12" text-anchor="middle" fill="#333">7</text>
  <line x1="320.0" y1="35" x2="320.0" y2="45" stroke="#333" stroke-width="1.5"/>
  <text x="320.0" y="60" font-family="Arial" font-size="12" text-anchor="middle" fill="#333">8</text>
  <line x1="340.0" y1="35" x2="340.0" y2="45" stroke="#333" stroke-width="1.5"/>
  <text x="340.0" y="60" font-family="Arial" font-size="12" text-anchor="middle" fill="#333">9</text>
  <line x1="360.0" y1="35" x2="360.0" y2="45" stroke="#333" stroke-width="1.5"/>
  <text x="360.0" y="60" font-family="Arial" font-size="12" text-anchor="middle" fill="#333">10</text>
  <text x="160.0" y="72" font-family="Arial" font-size="11" text-anchor="middle" fill="#666">O</text>
  <circle cx="80.0" cy="40" r="4" fill="#2196F3"/>
  <text x="80.0" y="28" font-family="Arial" font-size="13" text-anchor="middle" fill="#2196F3">A</text>
  <circle cx="160.0" cy="40" r="4" fill="#333"/>
  <text x="160.0" y="68" font-family="Arial" font-size="13" text-anchor="middle" fill="#333">O</text>
  <circle cx="320.0" cy="40" r="4" fill="#2196F3"/>
  <text x="320.0" y="28" font-family="Arial" font-size="13" text-anchor="middle" fill="#2196F3">B</text>
</svg>