<svg xmlns="http://www.w3.org/2000/svg" viewBox="0 0 400 120">
  <line x1="30" y1="90" x2="370" y2="90" stroke="#333" stroke-width="2"/>
  <polygon points="370,90 360,86 360,94" fill="#333"/>
  <line x1="40.0" y1="86" x2="40.0" y2="94" stroke="#333" stroke-width="1.5"/>
  <text x="40.0" y="108" font-family="Arial" font-size="11" text-anchor="middle" fill="#333">-5</text>
  <line x1="72.0" y1="86" x2="72.0" y2="94" stroke="#333" stroke-width="1.5"/>
  <text x="72.0" y="108" font-family="Arial" font-size="11" text-anchor="middle" fill="#333">-4</text>
  <line x1="104.0" y1="86" x2="104.0" y2="94" stroke="#333" stroke-width="1.5"/>
  <text x="104.0" y="108" font-family="Arial" font-size="11" text-anchor="middle" fill="#333">-3</text>
  <line x1="136.0" y1="86" x2="136.0" y2="94" stroke="#333" stroke-width="1.5"/>
  <text x="136.0" y="108" font-family="Arial" font-size="11" text-anchor="middle" fill="#333">-2</text>
  <line x1="168.0" y1="86" x2="168.0" y2="94" stroke="#333" stroke-width="1.5"/>
  <text x="168.0" y="108" font-family="Arial" font-size="11" text-anchor="middle" fill="#333">-1</text>
  <line x1="200.0" y1="86" x2="200.0" y2="94" stroke="#333" stroke-width="1.5"/>
  <text x="200.0" y="108" font-family="Arial" font-size="11" text-anchor="middle" fill="#333">0</text>
  <line x1="232.0" y1="86" x2="232.0" y2="94" stroke="#333" stroke-width="1.5"/>
  <text x="232.0" y="108" font-family="Arial" font-size="11" text-anchor="middle" fill="#333">1</text>
  <line x1="264.0" y1="86" x2="264.0" y2="94" stroke="#333" stroke-width="1.5"/>
  <text x="264.0" y="108" font-family="Arial" font-size="11" text-anchor="middle" fill="#333">2</text>
  <line x1="296.0" y1="86" x2="296.0" y2="94" stroke="#333" stroke-width="1.5"/>
  <text x="296.0" y="108" font-family="Arial" font-size="11" text-anchor="middle" fill="#333">3</text>
  <line x1="328.0" y1="86" x2="328.0" y2="94" stroke="#333" stroke-width="1.5"/>
  <text x="328.0" y="108" font-family="Arial" font-size="11" text-anchor="middle" fill="#333">4</text>
  <line x1="360.0" y1="86" x2="360.0" y2="94" stroke="#333" stroke-width="1.5"/>
  <text x="360.0" y="108" font-family="Arial" font-size="11" text-anchor="middle" fill="#333">5</text>
  <circle cx="168.0" cy="58.0" r="32.0" fill="none" stroke="#2196F3" stroke-width="1"/>
  <circle cx="136.0" cy="57.99999999999999" r="4" fill="#E91E63"/>
  <text x="136.0" y="49.99999999999999" font-family="Arial" font-size="12" text-anchor="middle" fill="#E91E63">A</text>
</svg>