<?xml version="1.0" encoding="UTF-8"?>
<svg xmlns="http://www.w3.org/2000/svg" width="450" height="80" viewBox="0 0 450 80">
<style>
text { font-family: -apple-system, 'Helvetica Neue', sans-serif; }
.axis { stroke: #333; stroke-width: 2; fill: none; }
.tick { stroke: #333; stroke-width: 1.5; }
.point { fill: #e74c3c; }
.point-blue { fill: #667eea; }
.point-green { fill: #10B981; }
.label { font-size: 14px; fill: #333; font-weight: 500; }
.small { font-size: 12px; fill: #666; }
.title { font-size: 16px; fill: #333; font-weight: 600; }
.shape { stroke: #667eea; stroke-width: 2; fill: none; }
.shape-fill { stroke: #667eea; stroke-width: 2; fill: rgba(102,126,234,0.1); }
.segment { stroke: #667eea; stroke-width: 3; }
.segment-red { stroke: #e74c3c; stroke-width: 2; stroke-dasharray: 5,3; }
.arrow { fill: #333; }
.table-line { stroke: #333; stroke-width: 1; }
.table-header { fill: #f0f4ff; }
</style>
<defs>
<marker id="arrow" markerWidth="10" markerHeight="10" refX="9" refY="3" orient="auto">
<path d="M0,0 L0,6 L9,3 z" class="arrow"/>
</marker>
</defs>
<line x1="40" y1="40.0" x2="420" y2="40.0" class="axis" marker-end="url(#arrow)"/>
<line x1="40.0" y1="36.0" x2="40.0" y2="44.0" class="tick"/>
<text x="40.0" y="58.0" text-anchor="middle" class="small">-4</text>
<line x1="77.0" y1="36.0" x2="77.0" y2="44.0" class="tick"/>
<text x="77.0" y="58.0" text-anchor="middle" class="small">-3</text>
<line x1="114.0" y1="36.0" x2="114.0" y2="44.0" class="tick"/>
<text x="114.0" y="58.0" text-anchor="middle" class="small">-2</text>
<line x1="151.0" y1="36.0" x2="151.0" y2="44.0" class="tick"/>
<text x="151.0" y="58.0" text-anchor="middle" class="small">-1</text>
<line x1="188.0" y1="36.0" x2="188.0" y2="44.0" class="tick"/>
<text x="188.0" y="58.0" text-anchor="middle" class="small">0</text>
<line x1="225.0" y1="36.0" x2="225.0" y2="44.0" class="tick"/>
<text x="225.0" y="58.0" text-anchor="middle" class="small">1</text>
<line x1="262.0" y1="36.0" x2="262.0" y2="44.0" class="tick"/>
<text x="262.0" y="58.0" text-anchor="middle" class="small">2</text>
<line x1="299.0" y1="36.0" x2="299.0" y2="44.0" class="tick"/>
<text x="299.0" y="58.0" text-anchor="middle" class="small">3</text>
<line x1="336.0" y1="36.0" x2="336.0" y2="44.0" class="tick"/>
<text x="336.0" y="58.0" text-anchor="middle" class="small">4</text>
<line x1="373.0" y1="36.0" x2="373.0" y2="44.0" class="tick"/>
<text x="373.0" y="58.0" text-anchor="middle" class="small">5</text>
<line x1="410.0" y1="36.0" x2="410.0" y2="44.0" class="tick"/>
<text x="410.0" y="58.0" text-anchor="middle" class="small">6</text>
<circle cx="114.0" cy="40.0" r="5" class="point"/>
<text x="114.0" y="28.0" text-anchor="middle" class="label">-2</text>
<circle cx="336.0" cy="40.0" r="5" class="point-blue"/>
<text x="336.0" y="28.0" text-anchor="middle" class="label">4</text>
</svg>