<svg xmlns="http://www.w3.org/2000/svg" viewBox="0 0 400 80">
  <line x1="30" y1="40" x2="370" y2="40" stroke="#333" stroke-width="2"/>
  <polygon points="370,40 360,35 360,45" fill="#333"/>
  <line x1="40.0" y1="35" x2="40.0" y2="45" stroke="#333" stroke-width="1.5"/>
  <text x="40.0" y="60" font-family="Arial" font-size="12" text-anchor="middle" fill="#333">-6</text>
  <line x1="57.77777777777778" y1="35" x2="57.77777777777778" y2="45" stroke="#333" stroke-width="1.5"/>
  <text x="57.77777777777778" y="60" font-family="Arial" font-size="12" text-anchor="middle" fill="#333">-5</text>
  <line x1="75.55555555555556" y1="35" x2="75.55555555555556" y2="45" stroke="#333" stroke-width="1.5"/>
  <text x="75.55555555555556" y="60" font-family="Arial" font-size="12" text-anchor="middle" fill="#333">-4</text>
  <line x1="93.33333333333334" y1="35" x2="93.33333333333334" y2="45" stroke="#333" stroke-width="1.5"/>
  <text x="93.33333333333334" y="60" font-family="Arial" font-size="12" text-anchor="middle" fill="#333">-3</text>
  <line x1="111.11111111111111" y1="35" x2="111.11111111111111" y2="45" stroke="#333" stroke-width="1.5"/>
  <text x="111.11111111111111" y="60" font-family="Arial" font-size="12" text-anchor="middle" fill="#333">-2</text>
  <line x1="128.88888888888889" y1="35" x2="128.88888888888889" y2="45" stroke="#333" stroke-width="1.5"/>
  <text x="128.88888888888889" y="60" font-family="Arial" font-size="12" text-anchor="middle" fill="#333">-1</text>
  <line x1="146.66666666666669" y1="35" x2="146.66666666666669" y2="45" stroke="#333" stroke-width="1.5"/>
  <text x="146.66666666666669" y="60" font-family="Arial" font-size="12" text-anchor="middle" fill="#333">0</text>
  <line x1="164.44444444444446" y1="35" x2="164.44444444444446" y2="45" stroke="#333" stroke-width="1.5"/>
  <text x="164.44444444444446" y="60" font-family="Arial" font-size="12" text-anchor="middle" fill="#333">1</text>
  <line x1="182.22222222222223" y1="35" x2="182.22222222222223" y2="45" stroke="#333" stroke-width="1.5"/>
  <text x="182.22222222222223" y="60" font-family="Arial" font-size="12" text-anchor="middle" fill="#333">2</text>
  <line x1="200.0" y1="35" x2="200.0" y2="45" stroke="#333" stroke-width="1.5"/>
  <text x="200.0" y="60" font-family="Arial" font-size="12" text-anchor="middle" fill="#333">3</text>
  <line x1="217.77777777777777" y1="35" x2="217.77777777777777" y2="45" stroke="#333" stroke-width="1.5"/>
  <text x="217.77777777777777" y="60" font-family="Arial" font-size="12" text-anchor="middle" fill="#333">4</text>
  <line x1="235.55555555555557" y1="35" x2="235.55555555555557" y2="45" stroke="#333" stroke-width="1.5"/>
  <text x="235.55555555555557" y="60" font-family="Arial" font-size="12" text-anchor="middle" fill="#333">5</text>
  <line x1="253.33333333333334" y1="35" x2="253.33333333333334" y2="45" stroke="#333" stroke-width="1.5"/>
  <text x="253.33333333333334" y="60" font-family="Arial" font-size="12" text-anchor="middle" fill="#333">6</text>
  <line x1="271.1111111111111" y1="35" x2="271.1111111111111" y2="45" stroke="#333" stroke-width="1.5"/>
  <text x="271.1111111111111" y="60" font-family="Arial" font-size="12" text-anchor="middle" fill="#333">7</text>
  <line x1="288.8888888888889" y1="35" x2="288.8888888888889" y2="45" stroke="#333" stroke-width="1.5"/>
  <text x="288.8888888888889" y="60" font-family="Arial" font-size="12" text-anchor="middle" fill="#333">8</text>
  <line x1="306.6666666666667" y1="35" x2="306.6666666666667" y2="45" stroke="#333" stroke-width="1.5"/>
  <text x="306.6666666666667" y="60" font-family="Arial" font-size="12" text-anchor="middle" fill="#333">9</text>
  <line x1="324.44444444444446" y1="35" x2="324.44444444444446" y2="45" stroke="#333" stroke-width="1.5"/>
  <text x="324.44444444444446" y="60" font-family="Arial" font-size="12" text-anchor="middle" fill="#333">10</text>
  <line x1="342.22222222222223" y1="35" x2="342.22222222222223" y2="45" stroke="#333" stroke-width="1.5"/>
  <text x="342.22222222222223" y="60" font-family="Arial" font-size="12" text-anchor="middle" fill="#333">11</text>
  <line x1="360.0" y1="35" x2="360.0" y2="45" stroke="#333" stroke-width="1.5"/>
  <text x="360.0" y="60" font-family="Arial" font-size="12" text-anchor="middle" fill="#333">12</text>
  <text x="146.66666666666669" y="72" font-family="Arial" font-size="11" text-anchor="middle" fill="#666">O</text>
  <circle cx="75.55555555555556" cy="40" r="4" fill="#2196F3"/>
  <text x="75.55555555555556" y="28" font-family="Arial" font-size="13" text-anchor="middle" fill="#2196F3">A</text>
  <circle cx="146.66666666666669" cy="40" r="4" fill="#333"/>
  <text x="146.66666666666669" y="68" font-family="Arial" font-size="13" text-anchor="middle" fill="#333">O</text>
  <circle cx="288.8888888888889" cy="40" r="4" fill="#4CAF50"/>
  <text x="288.8888888888889" y="28" font-family="Arial" font-size="13" text-anchor="middle" fill="#4CAF50">B</text>
</svg>