<?xml version="1.0" encoding="UTF-8"?>
<svg xmlns="http://www.w3.org/2000/svg" width="400" height="100" viewBox="0 0 400 100">
<style>
text { font-family: -apple-system, 'Helvetica Neue', sans-serif; }
.axis { stroke: #333; stroke-width: 2; fill: none; }
.tick { stroke: #333; stroke-width: 1.5; }
.point { fill: #e74c3c; }
.point-blue { fill: #667eea; }
.point-green { fill: #10B981; }
.label { font-size: 14px; fill: #333; font-weight: 500; }
.small { font-size: 12px; fill: #666; }
.title { font-size: 16px; fill: #333; font-weight: 600; }
.shape { stroke: #667eea; stroke-width: 2; fill: none; }
.shape-fill { stroke: #667eea; stroke-width: 2; fill: rgba(102,126,234,0.1); }
.segment { stroke: #667eea; stroke-width: 3; }
.segment-red { stroke: #e74c3c; stroke-width: 2; stroke-dasharray: 5,3; }
.arrow { fill: #333; }
.table-line { stroke: #333; stroke-width: 1; }
.table-header { fill: #f0f4ff; }
</style>
<defs>
<marker id="arrow" markerWidth="10" markerHeight="10" refX="9" refY="3" orient="auto">
<path d="M0,0 L0,6 L9,3 z" class="arrow"/>
</marker>
</defs>
<line x1="40" y1="60.0" x2="360" y2="60.0" class="axis" marker-end="url(#arrow)"/>
<line x1="70" y1="56.0" x2="70" y2="64.0" class="tick"/>
<text x="70" y="78.0" text-anchor="middle" class="small">-1</text>
<line x1="110" y1="56.0" x2="110" y2="64.0" class="tick"/>
<text x="110" y="78.0" text-anchor="middle" class="small">0</text>
<line x1="150" y1="56.0" x2="150" y2="64.0" class="tick"/>
<text x="150" y="78.0" text-anchor="middle" class="small">1</text>
<line x1="190" y1="56.0" x2="190" y2="64.0" class="tick"/>
<text x="190" y="78.0" text-anchor="middle" class="small">2</text>
<line x1="230" y1="56.0" x2="230" y2="64.0" class="tick"/>
<text x="230" y="78.0" text-anchor="middle" class="small">3</text>
<line x1="270" y1="56.0" x2="270" y2="64.0" class="tick"/>
<text x="270" y="78.0" text-anchor="middle" class="small">4</text>
<line x1="310" y1="56.0" x2="310" y2="64.0" class="tick"/>
<text x="310" y="78.0" text-anchor="middle" class="small">5</text>
<line x1="350" y1="56.0" x2="350" y2="64.0" class="tick"/>
<text x="350" y="78.0" text-anchor="middle" class="small">6</text>
<line x1="390" y1="56.0" x2="390" y2="64.0" class="tick"/>
<text x="390" y="78.0" text-anchor="middle" class="small">7</text>
<circle cx="150" cy="60.0" r="5" class="point"/>
<circle cx="310" cy="60.0" r="5" class="point-blue"/>
<line x1="150" y1="40.0" x2="310" y2="40.0" class="segment"/>
<text x="230.0" y="32.0" text-anchor="middle" class="small">距离=4</text>
</svg>