<?xml version="1.0" encoding="UTF-8"?>
<svg xmlns="http://www.w3.org/2000/svg" width="420" height="160" viewBox="0 0 420 160">
<style>
text { font-family: -apple-system, 'Helvetica Neue', sans-serif; }
.axis { stroke: #333; stroke-width: 2; fill: none; }
.tick { stroke: #333; stroke-width: 1.5; }
.point { fill: #e74c3c; }
.point-blue { fill: #667eea; }
.point-green { fill: #10B981; }
.label { font-size: 14px; fill: #333; font-weight: 500; }
.small { font-size: 12px; fill: #666; }
.title { font-size: 16px; fill: #333; font-weight: 600; }
.shape { stroke: #667eea; stroke-width: 2; fill: none; }
.shape-fill { stroke: #667eea; stroke-width: 2; fill: rgba(102,126,234,0.1); }
.segment { stroke: #667eea; stroke-width: 3; }
.segment-red { stroke: #e74c3c; stroke-width: 2; stroke-dasharray: 5,3; }
.arrow { fill: #333; }
.table-line { stroke: #333; stroke-width: 1; }
.table-header { fill: #f0f4ff; }
</style>
<defs>
<marker id="arrow" markerWidth="10" markerHeight="10" refX="9" refY="3" orient="auto">
<path d="M0,0 L0,6 L9,3 z" class="arrow"/>
</marker>
</defs>
<rect x="20" y="20" width="400" height="35" class="table-header"/>
<line x1="20" y1="20" x2="420" y2="20" class="table-line"/>
<line x1="20" y1="55" x2="420" y2="55" class="table-line"/>
<line x1="20" y1="90" x2="420" y2="90" class="table-line"/>
<line x1="20" y1="90" x2="420" y2="90" class="table-line"/>
<line x1="20" y1="20" x2="20" y2="90" class="table-line"/>
<line x1="70" y1="20" x2="70" y2="90" class="table-line"/>
<line x1="120" y1="20" x2="120" y2="90" class="table-line"/>
<line x1="170" y1="20" x2="170" y2="90" class="table-line"/>
<line x1="220" y1="20" x2="220" y2="90" class="table-line"/>
<line x1="270" y1="20" x2="270" y2="90" class="table-line"/>
<line x1="320" y1="20" x2="320" y2="90" class="table-line"/>
<line x1="370" y1="20" x2="370" y2="90" class="table-line"/>
<line x1="420" y1="20" x2="420" y2="90" class="table-line"/>
<text x="45.0" y="42.5" text-anchor="middle" class="small">星期</text>
<text x="95.0" y="42.5" text-anchor="middle" class="small">一</text>
<text x="145.0" y="42.5" text-anchor="middle" class="small">二</text>
<text x="195.0" y="42.5" text-anchor="middle" class="small">三</text>
<text x="245.0" y="42.5" text-anchor="middle" class="small">四</text>
<text x="295.0" y="42.5" text-anchor="middle" class="small">五</text>
<text x="345.0" y="42.5" text-anchor="middle" class="small">六</text>
<text x="395.0" y="42.5" text-anchor="middle" class="small">日</text>
<text x="45.0" y="77.5" text-anchor="middle" class="small" fill="#333">增减</text>
<text x="95.0" y="77.5" text-anchor="middle" class="small" fill="#10B981">+10</text>
<text x="145.0" y="77.5" text-anchor="middle" class="small" fill="#e74c3c">-12</text>
<text x="195.0" y="77.5" text-anchor="middle" class="small" fill="#e74c3c">-4</text>
<text x="245.0" y="77.5" text-anchor="middle" class="small" fill="#10B981">+8</text>
<text x="295.0" y="77.5" text-anchor="middle" class="small" fill="#e74c3c">-1</text>
<text x="345.0" y="77.5" text-anchor="middle" class="small" fill="#10B981">+6</text>
<text x="395.0" y="77.5" text-anchor="middle" class="small" fill="#333">0</text>
</svg>